<?xml version="1.0" standalone="no"?>
<!DOCTYPE svg PUBLIC "-//W3C//DTD SVG 20010904//EN"
 "http://www.w3.org/TR/2001/REC-SVG-20010904/DTD/svg10.dtd">
<svg version="1.0" xmlns="http://www.w3.org/2000/svg"
 width="1280.000000pt" height="1280.000000pt" viewBox="0 0 1280.000000 1280.000000"
 preserveAspectRatio="xMidYMid meet">
<metadata>
Created by potrace 1.15, written by Peter Selinger 2001-2017
</metadata>
<g transform="translate(0.000000,1280.000000) scale(0.100000,-0.100000)"
fill="#000000" opacity="0.3" stroke="none">
<path d="M6095 12794 c-1162 -62 -2242 -413 -3200 -1041 -933 -612 -1701
-1468 -2199 -2453 -377 -745 -590 -1487 -673 -2345 -24 -252 -24 -858 0 -1110
133 -1382 645 -2591 1541 -3635 116 -135 511 -530 646 -646 1044 -895 2253
-1408 3635 -1541 252 -24 858 -24 1110 0 1382 133 2591 646 3635 1541 135 116
530 511 646 646 896 1044 1408 2253 1541 3635 24 252 24 858 0 1110 -83 858
-296 1600 -673 2345 -294 582 -666 1097 -1134 1574 -347 354 -667 617 -1065
879 -888 582 -1867 922 -2940 1022 -162 15 -716 27 -870 19z m155 -2291 c0
-21 16 -83 35 -138 34 -98 35 -103 35 -262 0 -156 -1 -162 -22 -177 -30 -22
-77 -20 -129 4 -61 27 -137 26 -180 -3 -31 -20 -34 -28 -37 -76 -2 -35 2 -61
12 -77 9 -13 16 -43 16 -67 0 -31 6 -49 20 -62 18 -17 20 -31 20 -182 l0 -164
-37 -15 c-54 -21 -94 -44 -120 -67 -13 -11 -24 -19 -26 -16 -2 2 -15 22 -29
45 -35 55 -84 77 -157 72 -70 -5 -116 -35 -142 -92 -26 -58 -23 -103 15 -223
6 -19 1 -23 -46 -38 -29 -10 -102 -40 -162 -66 -60 -27 -113 -49 -117 -49 -4
0 -25 31 -48 69 -25 43 -55 78 -77 91 -104 65 -237 10 -262 -106 -11 -53 1
-101 44 -175 29 -49 34 -63 23 -69 -20 -11 -180 -132 -232 -174 l-43 -35 -50
50 c-86 87 -159 108 -241 68 -56 -27 -93 -87 -93 -152 0 -65 12 -91 76 -157
62 -65 63 -59 -6 -140 -26 -30 -68 -85 -94 -122 -26 -37 -51 -70 -56 -73 -5
-3 -44 13 -87 36 -67 35 -84 40 -125 37 -95 -10 -158 -79 -158 -173 0 -86 22
-113 162 -198 l27 -17 -35 -77 c-19 -42 -49 -113 -66 -157 -17 -45 -34 -85
-38 -90 -5 -4 -33 -1 -63 8 -30 9 -76 16 -102 16 -128 0 -210 -131 -155 -245
27 -57 72 -87 163 -110 65 -17 68 -19 62 -44 -12 -59 -35 -229 -35 -263 0 -65
-4 -68 -89 -68 -152 -1 -238 -82 -218 -207 16 -95 88 -143 215 -143 94 0 87 9
97 -120 5 -70 19 -165 30 -217 4 -19 -1 -24 -37 -33 -124 -31 -178 -72 -199
-150 -9 -34 -9 -55 0 -88 12 -44 71 -112 96 -112 10 0 15 -10 15 -27 0 -16 7
-53 15 -83 8 -30 11 -57 7 -61 -4 -3 -36 -16 -72 -29 -36 -12 -86 -33 -112
-46 -26 -13 -52 -24 -57 -24 -5 0 -19 17 -32 38 -70 116 -168 142 -243 63 -45
-47 -48 -114 -6 -187 17 -31 28 -60 23 -64 -7 -7 -127 -99 -195 -149 -16 -12
-24 -9 -73 38 -49 46 -58 51 -100 51 -57 0 -100 -21 -125 -63 -37 -61 -24
-121 41 -192 45 -49 45 -45 -6 -110 -20 -25 -20 -26 -86 130 -105 246 -209
598 -258 875 -89 500 -83 1041 14 1537 265 1340 1190 2476 2455 3012 429 181
969 304 1408 319 l52 2 0 -37z m674 6 c470 -59 928 -199 1346 -412 136 -69
323 -178 414 -239 47 -33 48 -35 50 -88 1 -30 5 -62 9 -71 6 -11 -4 -24 -35
-46 l-43 -31 -28 24 c-38 32 -86 32 -126 -2 -25 -21 -31 -33 -31 -66 0 -24 8
-51 21 -69 21 -30 20 -34 -18 -86 -23 -30 -25 -31 -51 -17 -55 28 -112 11
-137 -43 -26 -54 -5 -101 63 -138 1 -1 -7 -24 -19 -52 l-21 -50 -42 4 c-35 4
-47 1 -73 -21 -39 -33 -47 -66 -28 -112 10 -25 26 -40 54 -52 36 -15 39 -20
35 -47 -12 -69 -14 -75 -35 -75 -12 0 -36 -7 -54 -15 -94 -45 -57 -185 49
-185 26 0 36 -21 36 -76 0 -28 -6 -35 -42 -53 l-43 -21 -37 30 c-61 48 -109
85 -170 129 l-57 41 41 71 c33 58 41 80 41 123 0 80 -33 130 -106 161 -89 37
-169 4 -228 -95 -22 -35 -44 -69 -49 -74 -6 -6 -43 6 -97 31 -48 22 -121 53
-160 68 -81 31 -82 33 -58 111 42 139 -18 243 -146 252 -70 5 -124 -21 -160
-78 l-24 -37 -45 31 c-25 17 -64 38 -88 45 l-42 14 0 172 c0 161 1 173 21 191
15 14 20 28 17 59 -2 26 3 49 15 66 14 21 17 38 11 78 -6 43 -11 54 -39 71
-43 27 -127 27 -180 0 -43 -22 -95 -26 -126 -10 -18 10 -19 23 -19 188 0 165
2 181 25 237 13 33 30 91 36 128 l13 69 100 -7 c56 -3 173 -15 260 -26z m-452
-807 c36 -27 91 -60 122 -73 l56 -24 0 -167 0 -166 -31 -11 c-45 -16 -49 -14
-49 18 0 39 -38 91 -85 118 -53 30 -117 30 -170 0 -42 -24 -85 -86 -85 -124 0
-26 -5 -27 -49 -12 l-31 11 0 164 0 163 70 35 c39 20 94 54 123 75 29 22 54
40 57 40 3 1 35 -21 72 -47z m2620 -153 c192 -163 428 -412 593 -624 162 -207
376 -558 469 -768 l39 -88 -44 -46 c-112 -116 -285 -219 -454 -270 -82 -24
-105 -27 -260 -27 -145 0 -182 3 -251 22 -113 30 -155 49 -148 66 3 8 1 32 -5
54 -28 103 -139 158 -236 118 l-34 -15 -57 57 c-51 53 -174 224 -174 244 0 5
9 21 21 37 69 93 23 235 -87 271 l-37 12 6 157 c6 176 22 250 87 388 91 195
230 346 410 447 36 20 68 36 72 36 4 0 45 -32 90 -71z m-2964 -436 c-10 -2
-26 -2 -35 0 -10 3 -2 5 17 5 19 0 27 -2 18 -5z m590 0 c-10 -2 -28 -2 -40 0
-13 2 -5 4 17 4 22 1 32 -1 23 -4z m-388 -495 l0 -193 -38 -131 c-53 -183 -77
-214 -121 -158 -17 22 -21 41 -21 106 l0 79 -73 87 c-39 48 -82 101 -95 119
-30 43 -78 140 -90 185 -9 32 -8 38 6 42 55 17 276 46 410 55 l22 1 0 -192z
m435 161 c77 -11 144 -24 149 -29 17 -17 -43 -156 -103 -237 -17 -23 -56 -73
-88 -110 l-58 -68 -7 -95 c-6 -81 -10 -97 -29 -113 -12 -10 -27 -16 -32 -14
-26 8 -51 64 -88 191 l-39 137 0 184 0 185 78 -6 c42 -3 140 -15 217 -25z
m-985 -101 c20 -79 49 -139 117 -241 37 -56 80 -122 95 -146 l26 -45 -20 -40
c-11 -23 -44 -70 -73 -106 -83 -104 -91 -129 -51 -155 23 -15 28 -15 81 11 93
43 174 22 225 -62 l22 -35 -27 -92 c-33 -114 -45 -322 -25 -444 10 -66 40
-171 64 -224 6 -13 -3 -20 -44 -33 -133 -43 -301 -186 -367 -311 -62 -118 -78
-186 -78 -330 0 -109 4 -141 23 -200 38 -113 88 -193 176 -280 189 -187 446
-246 700 -161 l77 26 33 -26 34 -27 -24 -51 c-29 -62 -30 -100 -4 -126 25 -25
53 -25 109 0 24 11 44 20 46 20 1 0 5 -26 8 -58 14 -129 99 -255 222 -327 16
-10 16 -13 -5 -47 -12 -20 -24 -61 -27 -91 -5 -51 -4 -54 28 -81 33 -28 35
-29 134 -22 55 3 111 8 125 11 22 5 28 0 55 -52 76 -149 180 -207 318 -180
l38 8 -25 -38 c-35 -54 -42 -88 -22 -118 19 -29 65 -33 106 -10 43 24 50 19
50 -35 l0 -50 -75 -55 c-328 -243 -738 -403 -1150 -449 -108 -12 -111 -11
-144 11 -40 27 -87 29 -156 8 -27 -8 -50 -13 -51 -12 0 1 -14 36 -29 77 -15
41 -39 97 -53 125 -28 55 -31 47 47 98 73 47 98 122 63 187 -42 77 -123 93
-218 41 -31 -17 -58 -30 -59 -28 -12 21 -90 125 -124 165 l-44 53 47 48 c79
80 83 157 10 221 -28 24 -44 30 -80 30 -55 0 -77 -10 -130 -62 l-42 -40 -74
59 c-40 32 -90 69 -110 82 l-36 25 34 64 c39 73 41 91 14 150 -15 34 -29 47
-66 64 -44 19 -51 19 -93 6 -44 -13 -76 -47 -121 -127 -6 -12 -14 -11 -51 4
-24 10 -80 33 -124 51 -89 36 -83 24 -69 141 9 80 -15 123 -82 149 -88 34
-168 -20 -193 -129 -10 -46 -16 -57 -29 -53 -22 7 -133 24 -204 31 l-58 6 0
67 c0 113 -54 169 -152 160 -78 -8 -119 -59 -130 -162 -6 -54 -95 222 -133
409 -43 214 -58 516 -35 733 88 820 590 1535 1335 1902 120 59 385 159 422
160 7 0 17 -19 23 -42z m1366 13 c432 -138 851 -424 1133 -774 240 -297 422
-684 491 -1047 44 -226 54 -554 25 -775 -66 -499 -268 -936 -609 -1315 -32
-36 -62 -66 -67 -68 -11 -4 0 86 13 112 6 10 26 39 45 64 43 57 83 135 83 162
0 70 -62 80 -154 25 -32 -19 -60 -35 -62 -35 -2 0 -4 13 -4 28 0 76 -130 242
-232 297 -29 15 -54 29 -56 30 -1 1 7 22 18 46 37 82 20 133 -43 131 -20 -1
-50 -8 -66 -17 l-30 -15 -19 43 c-22 49 -79 109 -121 126 -16 7 -32 25 -39 45
-28 77 -116 148 -201 162 -23 4 -41 7 -41 8 0 1 9 21 20 44 54 111 -10 166
-125 107 -27 -13 -49 -23 -50 -22 0 1 -10 14 -23 28 l-23 26 32 93 c116 348
-48 713 -385 857 -28 12 -51 25 -51 30 1 4 13 45 28 90 14 45 31 111 37 145
23 146 5 372 -40 491 -11 28 -20 55 -20 59 0 17 67 82 97 94 47 20 78 17 144
-12 57 -26 60 -26 79 -9 37 33 27 61 -56 160 -42 51 -84 121 -84 141 0 6 43
78 96 159 88 134 143 248 144 298 0 23 10 22 116 -12z m-685 -911 c95 -100
118 -426 44 -605 -28 -65 -36 -70 -108 -67 l-65 4 -25 56 c-34 77 -49 167 -49
288 1 164 46 307 110 347 33 20 59 14 93 -23z m3818 -12 c40 -4 39 -1 106
-234 170 -586 203 -1249 94 -1864 -130 -734 -456 -1413 -957 -1992 -46 -54
-87 -98 -91 -98 -19 0 -31 30 -31 80 -1 225 -142 446 -350 549 -54 26 -116 48
-170 58 -47 9 -87 18 -89 19 -1 2 9 38 23 81 49 147 24 219 -50 142 -34 -36
-141 -109 -159 -109 -6 0 -17 18 -24 40 -7 25 -35 65 -72 104 l-60 64 64 80
c36 44 83 107 106 141 23 33 44 61 47 61 3 0 38 -18 78 -40 84 -46 134 -51
196 -20 83 42 117 147 75 234 -17 36 -28 45 -153 122 l-22 14 30 60 c16 32 48
105 71 162 22 57 42 104 43 106 2 1 38 -7 82 -18 89 -23 121 -20 177 17 43 27
76 89 77 142 0 55 -36 118 -83 145 -23 13 -51 26 -62 29 -11 3 -39 11 -61 16
l-42 11 8 38 c5 20 13 82 20 137 6 55 13 119 16 143 l5 42 80 0 c92 0 134 14
172 59 70 84 52 206 -40 263 -29 17 -56 23 -124 26 l-88 4 -5 37 c-3 20 -8 68
-12 106 -3 39 -12 102 -18 142 l-13 72 69 16 c109 27 165 76 175 153 8 58 -4
107 -34 142 -53 64 -125 77 -235 45 -65 -19 -73 -16 -82 22 -4 16 -30 80 -57
144 l-50 116 36 36 36 36 47 -20 c47 -20 47 -20 44 -63 -8 -93 92 -144 158
-81 16 15 30 37 32 49 3 19 8 21 53 17 62 -4 65 -6 65 -41 0 -34 40 -85 75
-94 40 -10 94 18 110 58 8 20 15 45 15 56 0 17 6 20 39 20 22 0 46 3 54 6 11
4 17 -4 22 -25 8 -37 58 -81 91 -81 66 0 112 58 100 124 -6 34 -5 35 40 56
l47 20 32 -35 c28 -29 39 -35 75 -35 80 0 128 86 84 149 -16 22 -16 24 0 33 9
5 28 20 43 32 l27 24 31 -23 c16 -13 45 -25 64 -27z m-3069 -2079 c17 -70 55
-109 164 -168 128 -69 129 -72 75 -127 -50 -51 -99 -68 -171 -62 -73 7 -138
46 -173 103 -26 43 -30 57 -30 124 0 92 24 147 75 173 18 9 37 15 41 13 4 -3
13 -28 19 -56z m485 -458 c83 -38 166 -164 151 -228 -10 -38 -68 -90 -108 -95
-70 -11 -110 15 -185 120 -53 73 -80 90 -163 99 -66 6 -75 13 -65 43 20 63
274 105 370 61z m-3186 -41 c561 -59 1066 -365 1373 -831 53 -80 158 -279 172
-325 7 -24 6 -24 -171 12 l-83 17 25 25 c50 50 38 134 -25 167 -41 21 -67 19
-117 -11 -25 -14 -45 -24 -47 -22 -1 1 -28 38 -60 80 l-58 78 36 42 c29 34 36
50 36 86 0 60 -40 102 -99 102 -34 0 -49 -7 -84 -39 l-42 -38 -81 62 -81 62
23 44 c13 24 23 55 24 69 0 42 -35 88 -77 100 -52 16 -86 1 -125 -55 -21 -30
-38 -44 -48 -41 -8 2 -50 19 -93 37 -69 28 -78 35 -73 53 4 12 9 40 12 63 6
39 4 45 -29 78 -27 27 -43 35 -72 35 -53 0 -92 -31 -109 -88 l-14 -47 -43 3
c-80 4 -84 7 -167 129 -116 173 -113 163 -50 163 29 0 95 -5 147 -10z m-674
-71 c-20 -18 -43 -45 -51 -60 -18 -35 -18 -110 0 -170 l14 -46 -95 -38 c-103
-42 -96 -43 -129 18 -18 34 -76 60 -114 52 -33 -7 -75 -50 -83 -85 -4 -17 3
-45 19 -79 13 -30 21 -57 17 -61 -41 -34 -144 -110 -149 -110 -4 0 -24 16 -45
35 -55 49 -107 49 -156 0 -32 -32 -35 -40 -30 -77 4 -29 16 -51 42 -78 l37
-38 -46 -56 c-26 -32 -53 -68 -62 -81 l-16 -24 -49 24 c-26 14 -59 25 -72 25
-18 0 -31 14 -60 65 l-38 66 56 72 c178 230 454 447 715 563 73 32 299 112
323 113 4 1 -8 -13 -28 -30z m4269 -914 c100 -71 232 -96 367 -71 106 20 175
20 258 1 248 -59 441 -295 441 -540 0 -93 -24 -170 -86 -272 -16 -28 -17 -35
-6 -54 8 -12 10 -24 5 -28 -5 -3 -51 -40 -103 -81 -410 -327 -877 -574 -1375
-725 -341 -104 -695 -162 -1040 -171 l-200 -5 -20 33 c-11 18 -42 47 -68 64
-26 17 -50 33 -52 36 -3 3 10 38 28 79 19 41 42 98 52 127 15 40 23 51 35 46
39 -15 119 -27 144 -20 37 9 93 64 102 99 19 80 -38 157 -132 178 l-56 13 6
35 c3 20 11 82 18 139 l12 102 60 0 c41 0 73 6 96 19 97 52 96 192 -3 242 -34
18 -36 22 -26 41 7 12 14 61 17 110 l5 88 36 0 c31 0 99 9 277 36 l41 6 18
-71 c35 -144 114 -205 228 -176 110 28 150 124 112 265 -8 30 -15 60 -15 65 0
6 24 19 53 29 28 10 101 40 161 67 60 27 112 46 115 43 3 -3 24 -35 46 -72 28
-46 52 -73 80 -89 105 -59 239 6 258 125 8 48 -3 89 -43 153 -16 27 -31 54
-33 60 -2 8 118 106 133 108 3 1 27 -15 54 -34z m-1993 -510 c54 -7 51 0 69
-160 44 -395 -49 -827 -249 -1159 l-53 -87 -46 6 c-54 7 -206 33 -240 41 -23
5 -23 5 -5 33 10 15 25 37 34 49 l16 22 53 -27 c49 -26 54 -26 93 -12 32 11
46 23 61 52 28 58 11 108 -49 143 -25 14 -45 29 -45 32 0 7 71 174 76 181 2 2
24 -2 49 -8 36 -9 52 -8 79 3 103 43 84 177 -30 205 -44 11 -45 13 -39 42 4
16 10 60 13 97 l7 67 54 7 c64 7 102 33 115 77 21 73 -25 128 -115 139 l-54 7
-7 67 c-3 37 -9 81 -13 97 -6 29 -5 31 39 42 26 6 56 22 69 35 15 17 30 23 47
20 14 -3 46 -7 71 -11z"/>
</g>
</svg>
